<svg xmlns="http://www.w3.org/2000/svg" version="1.1" viewBox="43.85 5.31 12.3 89.37">
 <path d="m43.852 88.145v-6.543h12.297v13.086h-12.297zm0-9.9727v-1.7891h12.297v3.5781h-12.297zm0-31.441v-28.012h12.297v56.023h-12.297zm1.4375-31.605c2.6406-5.4883 2.4883-5.1836 2.5977-5.1797 0.054687 0.003907 0.32812 0.039063 0.60938 0.078126 1.0703 0.15625 2.3359 0.14062 3.3555-0.046876 0.20313-0.035156 0.375-0.0625 0.38281-0.054687 0.023437 0.023437 3.4297 7.1172 3.4297 7.1367 0 0.011718-2.5469 0.019531-5.6562 0.019531l-5.6602 0.007813zm4.1133-6.6211c-0.63281-0.046875-0.87109-0.089844-0.84766-0.14844 0.011718-0.027344 0.34375-0.72266 0.74219-1.5469l0.72266-1.4961 0.082031 0.17188c0.042969 0.09375 0.37891 0.78906 0.73828 1.543 0.76172 1.5781 0.75781 1.4102 0.03125 1.457-0.82422 0.054687-1.0352 0.058594-1.4688 0.023437z"/></svg>