<svg xmlns="http://www.w3.org/2000/svg" xmlns:xlink="http://www.w3.org/1999/xlink" version="1.1"
    x="0px" y="0px" style="enable-background:new 0 0 100 100;" xml:space="preserve"
    viewBox="19.45 19.08 61.08 61.67"><g>
        <path fill="#ffffff" d="M67.1,26.4L51.2,42.3c-0.2,0.2-0.2,0.5,0,0.7l5.3,5.3c0.2,0.2,0.5,0.2,0.7,0l15.9-15.9c0.3-0.3,0.3-0.7,0-0.9l-5.1-5.1   C67.8,26.1,67.4,26.1,67.1,26.4z"/>
        <path fill="#ffffff" d="M41.3,52.2l-17,17c-0.2,0.2-0.2,0.5,0,0.7l5.3,5.3c0.2,0.2,0.5,0.2,0.7,0l17-17c0.3-0.3,0.3-0.7,0-0.9l-5.1-5.1   C42,51.9,41.6,51.9,41.3,52.2z"/>
        <path fill="#ffffff" d="M74.3,19.3l-5.1,5.1c-0.3,0.3-0.3,0.7,0,0.9l5.1,5.1c0.3,0.3,0.7,0.3,0.9,0l5.1-5.1c0.3-0.3,0.3-0.7,0-0.9l-5.1-5.1   C75,19,74.5,19,74.3,19.3z"/>
        <path fill="#ffffff" d="M22.9,71l-2,7.4c-0.1,0.2,0.1,0.4,0.3,0.3l7.4-2c0.2-0.1,0.3-0.3,0.1-0.4l-5.4-5.4C23.1,70.7,22.9,70.8,22.9,71z"/>
        <path fill="#ffffff" d="M26.5,20.5l-6.9,6.9c-0.2,0.2-0.2,0.5,0,0.7l6.9,6.9l2.3-2.3l0.7,0.7l-2.3,2.3l3.5,3.5l2.3-2.3l0.7,0.7L31.5,40l3.5,3.5   l2.3-2.3l0.7,0.7l-2.3,2.3l3.5,3.5l2.3-2.3l0.7,0.7L40,48.4l2.6,2.6l1,1l2.3-2.3l0.7,0.7l-2.3,2.3l3.5,3.5l2.3-2.3l0.7,0.7   l-2.3,2.3l0.1,0.1l3.4,3.4l2.3-2.3l0.7,0.7l-2.3,2.3l3.5,3.5l2.3-2.3l0.7,0.7l-2.3,2.3l3.5,3.5l2.3-2.3l0.7,0.7l-2.3,2.3l3.5,3.5   l2.3-2.3l0.7,0.7l-2.3,2.3l6.9,6.9c0.2,0.2,0.5,0.2,0.7,0l6.9-6.9c0.2-0.2,0.2-0.5,0-0.7L56.2,49.4l-6-6L27.2,20.5   C27,20.3,26.7,20.3,26.5,20.5z"/>
    </g></svg>