<svg xmlns="http://www.w3.org/2000/svg" data-name="Layer 1" viewBox="0 0 100 100" x="0px" y="0px">
    <path fill="#ffffff" d="M100,60V40l-13.51-.88a39.7,39.7,0,0,0-3-7.28l8.92-10.17L78.28,7.58,68.12,16.52a38.38,38.38,0,0,0-7.28-3L60,0H40L39.14,13.51a37.86,37.86,0,0,0-7.28,3L21.7,7.58,7.59,21.7l8.92,10.17a39.7,39.7,0,0,0-3,7.28L0,40V60l13.51,0.86a39.15,39.15,0,0,0,3,7.28L7.61,78.31,21.72,92.42l10.15-8.94a38.38,38.38,0,0,0,7.28,3L40,100H60l0.88-13.51a37.36,37.36,0,0,0,7.28-3l10.15,8.94,14.12-14.1L83.47,68.15a38.61,38.61,0,0,0,3-7.28ZM50,67.9A17.88,17.88,0,1,1,67.89,50,17.88,17.88,0,0,1,50,67.9Z"/>
</svg>